<?xml version="1.0" encoding="UTF-8"?>
<svg xmlns="http://www.w3.org/2000/svg" xmlns:xlink="http://www.w3.org/1999/xlink" width="408.18pt" height="498.27pt" viewBox="0 0 408.18 498.27" version="1.1">
<defs>
<clipPath id="clip1">
  <path d="M 0 0 L 408.179688 0 L 408.179688 498.269531 L 0 498.269531 Z M 0 0 "/>
</clipPath>
</defs>
<g id="surface1">
<path style=" stroke:none;fill-rule:nonzero;fill:rgb(13.699341%,12.199402%,12.5%);fill-opacity:1;" d="M 351.273438 392.382813 C 351.328125 393.0625 351.242188 393.746094 351.113281 394.3125 C 350.75 397.628906 349.679688 400.839844 348.019531 403.554688 L 347.597656 404.246094 C 346.0625 406.761719 344.480469 409.363281 342.246094 411.613281 C 338.339844 415.554688 333.546875 419.15625 327.160156 422.949219 C 324.300781 424.648438 321.328125 426.15625 318.546875 427.535156 C 317.769531 427.917969 317 428.308594 316.226563 428.695313 C 314.144531 429.746094 311.992188 430.832031 309.773438 431.800781 C 304.210938 434.234375 298.066406 436.339844 291.511719 438.0625 C 278.574219 441.46875 265.71875 443.210938 253.296875 443.242188 L 252.59375 443.242188 C 240.339844 443.210938 227.460938 441.617188 213.214844 438.378906 C 208.328125 437.269531 203.109375 435.832031 197.25 433.988281 C 194.976563 433.269531 192.695313 432.589844 190.410156 431.90625 C 187.542969 431.050781 184.582031 430.164063 181.667969 429.21875 L 177.953125 428.011719 L 179.558594 424.449219 C 182.53125 417.863281 184.59375 412.324219 186.046875 407.019531 C 186.929688 403.792969 187.679688 400.511719 188.234375 398.015625 C 188.34375 397.53125 188.453125 397.054688 188.566406 396.574219 C 188.785156 395.640625 188.992188 394.757813 189.15625 393.882813 C 189.179688 393.753906 189.183594 393.617188 189.195313 393.484375 C 189.574219 389.132813 192.566406 388.554688 193.835938 388.507813 C 197.957031 388.359375 201.992188 388.222656 206.105469 388.214844 C 216.3125 388.1875 224.082031 388.964844 231.292969 390.734375 C 240.257813 392.933594 252.734375 397.628906 261.261719 407.503906 C 262.382813 408.800781 263.382813 410.152344 264.246094 411.550781 C 264.171875 405.820313 264.050781 399.914063 262.734375 394.195313 C 261.320313 388.066406 259.035156 382.980469 255.945313 379.078125 C 255.722656 378.796875 255.34375 378.417969 254.945313 378.019531 C 253.28125 376.359375 250.1875 373.273438 251.855469 369.089844 C 252.40625 367.703125 253.238281 366.605469 253.972656 365.640625 C 254.195313 365.34375 254.421875 365.050781 254.625 364.75 C 255.4375 363.574219 256.207031 362.292969 256.917969 360.945313 C 259.480469 356.082031 261.320313 350.515625 262.394531 344.394531 C 263.039063 340.695313 263.28125 336.953125 263.347656 333.164063 C 257.738281 342.6875 248.355469 348.457031 241.042969 351.722656 C 235.773438 354.074219 230.003906 355.875 223.402344 357.222656 C 217.671875 358.394531 211.871094 358.925781 206.261719 359.441406 L 203.742188 359.671875 C 202.195313 359.816406 200.683594 359.964844 199.214844 360.15625 L 198.902344 360.195313 C 198.40625 360.257813 197.90625 360.324219 197.414063 360.40625 L 197.277344 360.4375 C 196.933594 360.507813 196.410156 360.613281 195.796875 360.613281 C 194.847656 360.617188 193.996094 360.371094 193.265625 359.882813 C 192.371094 359.28125 191.347656 358.105469 191.515625 355.890625 C 191.46875 355.183594 191.410156 354.476563 191.347656 353.769531 C 191.195313 352 191.019531 350.425781 190.820313 348.949219 C 190.625 347.496094 190.359375 346.058594 190.082031 344.539063 C 189.777344 342.878906 189.460938 341.164063 189.238281 339.414063 C 188.789063 335.890625 188.320313 332.800781 187.808594 329.980469 C 187.1875 326.570313 186.511719 323.238281 185.929688 320.429688 C 185.875 320.171875 185.804688 319.90625 185.738281 319.644531 C 185.429688 318.453125 185.007813 316.828125 185.402344 315.003906 C 185.75 313.398438 186.898438 311.25 190.382813 310.183594 C 196.3125 308.367188 202.679688 306.484375 209.113281 305.015625 C 222.113281 302.046875 235.339844 300.488281 248.429688 300.378906 L 249.425781 300.375 C 262.558594 300.339844 275.429688 301.78125 287.683594 304.660156 C 293.972656 306.136719 300.28125 308.050781 306.4375 310.351563 C 311.390625 312.199219 317.871094 314.765625 324.066406 318.207031 C 334.609375 324.074219 342.296875 332.578125 345.714844 342.164063 C 348.449219 349.835938 348.058594 356.320313 344.554688 361.441406 C 342.890625 363.867188 340.566406 366.066406 337.449219 368.167969 C 336.753906 368.632813 336.054688 369.050781 335.359375 369.4375 C 337.925781 370.710938 340.441406 372.390625 342.738281 374.371094 C 348.371094 379.222656 351.511719 385.886719 351.273438 392.382813 Z M 181.914063 152.746094 L 182.09375 152.679688 C 182.949219 152.34375 183.789063 151.988281 184.632813 151.632813 C 185.332031 151.335938 186.03125 151.042969 186.734375 150.761719 C 190.128906 149.390625 193.578125 148.394531 196.203125 147.679688 C 202.460938 145.972656 209.023438 144.710938 215.710938 143.929688 C 228.902344 142.382813 242.433594 142.644531 255.453125 144.691406 C 269.34375 146.878906 280.730469 150.796875 290.273438 156.671875 C 292.527344 158.058594 295.40625 160.011719 297.621094 162.804688 C 299.660156 165.363281 301.132813 168.546875 301.882813 172 C 303.226563 178.207031 301.847656 185.066406 298.097656 190.824219 C 296.382813 193.457031 294.21875 195.847656 291.671875 197.933594 C 291.125 198.382813 290.5625 198.808594 289.980469 199.21875 C 291.996094 200.105469 293.910156 201.121094 295.695313 202.261719 C 301.414063 205.902344 305.457031 210.574219 307.390625 215.773438 C 309.640625 221.8125 308.851563 228.878906 305.285156 234.675781 C 301.890625 240.195313 296.621094 243.953125 292.390625 246.972656 C 287.347656 250.570313 281.808594 253.734375 275.929688 256.378906 C 265.074219 261.253906 252.65625 264.507813 239.019531 266.054688 C 232.6875 266.773438 226.128906 267.128906 218.972656 267.148438 C 217.375 267.152344 215.777344 267.140625 214.179688 267.109375 C 206.730469 266.976563 197.964844 266.636719 189.414063 265.160156 L 185.832031 264.539063 L 186.589844 260.980469 C 191.773438 236.621094 191.722656 210.867188 186.449219 186.5 C 185.550781 182.339844 184.367188 177.945313 182.726563 172.671875 L 181.847656 169.8125 C 180.863281 166.589844 179.839844 163.273438 178.648438 160.136719 C 178.609375 159.976563 177.792969 156.660156 178.570313 155.371094 C 179.03125 154.609375 179.628906 154.050781 180.058594 153.707031 C 180.746094 153.203125 181.433594 152.929688 181.914063 152.746094 Z M 397.765625 369.546875 C 397.746094 369.535156 397.730469 369.523438 397.710938 369.511719 L 397.460938 369.324219 L 397.246094 369.09375 C 396.9375 368.761719 396.5625 368.421875 396.167969 368.058594 C 395.566406 367.511719 394.882813 366.886719 394.242188 366.132813 C 393.140625 364.820313 392.152344 363.359375 391.320313 361.792969 C 389.804688 358.9375 388.882813 355.957031 387.988281 353.078125 L 387.910156 352.8125 C 386.019531 346.714844 383.8125 340.855469 381.355469 335.398438 C 376.210938 323.988281 370.21875 315 363.035156 307.925781 C 356.441406 301.429688 348.425781 295.53125 337.808594 289.355469 C 327.449219 283.339844 317.671875 278.773438 307.910156 275.410156 L 301.691406 273.265625 L 306.941406 269.304688 C 308.3125 268.273438 309.71875 267.320313 311.078125 266.402344 C 312.277344 265.589844 313.414063 264.824219 314.519531 264.007813 C 316.9375 262.226563 319.28125 260.335938 321.480469 258.394531 C 326.429688 254.03125 330.199219 249.828125 333.015625 245.539063 C 334.171875 243.773438 335.183594 241.902344 336.257813 239.925781 C 336.683594 239.136719 337.109375 238.351563 337.546875 237.570313 C 338.792969 235.335938 339.925781 232.832031 341.117188 229.683594 C 342.035156 227.261719 342.976563 224.558594 344.074219 221.183594 C 344.382813 220.238281 344.648438 219.273438 344.929688 218.253906 C 345.46875 216.308594 346.023438 214.300781 346.902344 212.308594 C 349.574219 206.230469 353.082031 201.324219 357.328125 197.726563 L 357.390625 197.675781 C 357.304688 197.597656 357.230469 197.527344 357.175781 197.476563 C 354.855469 195.15625 352.90625 192.878906 351.21875 190.503906 C 347.625 185.445313 345.207031 179.855469 342.863281 174.453125 L 342.601563 173.84375 C 340.804688 169.695313 338.269531 164.308594 334.605469 159.457031 C 328.898438 151.894531 321.046875 144.996094 309.898438 137.738281 C 299.425781 130.917969 288.640625 125.664063 277.847656 122.121094 C 264.335938 117.683594 249.488281 115.457031 233.71875 115.496094 C 223.894531 115.523438 213.59375 116.429688 203.105469 118.199219 C 196.914063 119.242188 190.617188 120.554688 184.390625 122.101563 C 181.507813 122.8125 178.433594 123.613281 175.464844 124.625 C 174.167969 125.066406 172.816406 125.578125 171.457031 126.152344 C 171.101563 126.300781 170.746094 126.46875 170.386719 126.632813 C 169.15625 127.203125 167.765625 127.851563 166.125 128.113281 C 165.726563 128.179688 165.324219 128.214844 164.933594 128.214844 C 161.0625 128.222656 158.875 125.332031 157.425781 123.414063 C 157.15625 123.058594 156.890625 122.703125 156.617188 122.382813 C 154.929688 120.378906 153.003906 118.308594 150.554688 115.871094 C 145.859375 111.1875 141.601563 107.304688 137.523438 103.996094 C 133.007813 100.328125 128.265625 96.949219 123.421875 93.953125 C 119.953125 91.804688 116.238281 89.847656 112.648438 87.953125 C 111.394531 87.289063 110.136719 86.628906 108.882813 85.953125 C 112.207031 90.09375 115.40625 94.410156 118.417969 98.8125 C 133.113281 120.292969 143.128906 142.847656 148.191406 165.847656 C 153.546875 190.199219 153.007813 215.617188 146.628906 239.359375 C 143.378906 251.449219 138.492188 263.210938 132.109375 274.3125 C 130.582031 276.972656 129.023438 279.449219 127.148438 282.402344 L 126.832031 282.90625 C 126.183594 283.9375 125.445313 285.113281 124.503906 286.195313 C 124.277344 286.449219 124.039063 286.699219 123.789063 286.953125 C 123.695313 287.050781 123.582031 287.167969 123.472656 287.285156 C 123.496094 287.3125 123.527344 287.347656 123.558594 287.378906 C 124.527344 288.464844 125.46875 289.664063 126.511719 291.160156 C 128.484375 293.988281 130.332031 296.804688 131.878906 299.183594 C 137.84375 308.367188 142.703125 317.828125 146.328125 327.304688 C 149.851563 336.519531 153.414063 347.480469 153.121094 358.917969 L 153.023438 362.78125 L 149.1875 362.300781 C 143.292969 361.566406 136.390625 360.503906 129.871094 358.199219 C 123.835938 356.070313 118.253906 353.132813 113.289063 349.476563 C 103.9375 342.585938 96.605469 333.082031 92.640625 322.71875 C 87.941406 310.433594 87.839844 296.996094 87.75 285.144531 C 87.644531 270.351563 88.460938 257.378906 90.253906 245.476563 C 92.53125 230.394531 96.011719 219.597656 101.546875 210.464844 C 103.515625 207.210938 105.402344 204.726563 107.480469 202.644531 C 108.585938 201.539063 109.589844 200.679688 110.589844 199.988281 C 109.394531 199.09375 108.273438 198.097656 107.167969 196.957031 C 105.144531 194.871094 103.246094 192.457031 101.359375 189.570313 C 94.105469 178.476563 90.9375 165.449219 88.984375 155.34375 C 86.746094 143.742188 85.265625 131.289063 84.328125 116.160156 C 82.570313 87.890625 85.796875 64.199219 94.191406 43.726563 C 98.976563 32.050781 105.308594 22.128906 113 14.234375 C 115.511719 11.65625 118.269531 9.277344 121.339844 7.042969 C 119.320313 7.066406 117.421875 7.136719 115.570313 7.257813 C 103.503906 8.027344 92.84375 11.050781 83.882813 16.238281 C 81.804688 17.441406 79.617188 18.910156 77.195313 20.726563 C 76.03125 21.597656 75.195313 22.300781 74.472656 23.011719 C 74.21875 23.265625 73.933594 23.617188 73.636719 23.992188 C 73.128906 24.625 72.554688 25.339844 71.789063 26.003906 C 70.722656 26.929688 69.460938 27.417969 68.136719 27.421875 C 65.445313 27.429688 63.496094 25.480469 62.207031 24.1875 C 61.945313 23.925781 61.703125 23.675781 61.476563 23.484375 C 59.335938 21.695313 57.046875 20.039063 54.667969 18.5625 C 49.796875 15.535156 44.554688 13.25 39.085938 11.765625 C 34.0625 10.402344 28.53125 9.644531 21.148438 9.308594 C 18.628906 9.195313 16.277344 9.132813 14.007813 9.121094 C 15.203125 9.945313 16.386719 10.820313 17.558594 11.738281 C 38.589844 28.246094 47.417969 51.9375 51.117188 68.90625 C 53.375 79.257813 54.554688 90.785156 54.832031 105.183594 C 55.09375 118.855469 54.59375 132.117188 53.34375 144.597656 C 52.660156 151.414063 51.707031 158 50.511719 164.167969 C 49.496094 169.425781 48.011719 176.320313 45.5625 183.027344 C 43.296875 189.222656 40.128906 194.285156 36.140625 198.066406 C 34.863281 199.277344 33.644531 200.289063 32.40625 201.164063 C 32.242188 201.28125 32.074219 201.394531 31.910156 201.5 C 36.757813 204.675781 39.914063 209.453125 41.90625 212.875 C 44.773438 217.78125 47.25 223.398438 49.273438 229.5625 C 53.5625 242.628906 55.367188 256.324219 56.464844 266.792969 C 57.878906 280.3125 58.414063 293.644531 58.054688 306.417969 C 57.65625 320.621094 55.777344 333.074219 52.308594 344.484375 C 48.21875 357.949219 42.183594 368.699219 34.378906 376.4375 C 31.378906 379.410156 27.917969 382.105469 24.050781 384.484375 C 28.550781 384.183594 33.4375 383.710938 38.230469 382.824219 C 43.996094 381.757813 49.515625 379.898438 54.640625 377.304688 C 59.648438 374.769531 64.457031 371.507813 68.933594 367.613281 C 69.125 367.449219 69.316406 367.25 69.515625 367.046875 C 70.292969 366.257813 71.261719 365.273438 72.644531 364.707031 C 73.222656 364.46875 73.839844 364.347656 74.472656 364.34375 C 76.507813 364.339844 78.015625 365.535156 79.015625 366.320313 C 79.164063 366.441406 79.304688 366.558594 79.433594 366.644531 C 80.996094 367.710938 82.75 368.589844 84.609375 369.523438 C 85.46875 369.957031 86.324219 370.390625 87.167969 370.839844 C 96.972656 376.082031 108.726563 381.914063 121.570313 385.402344 C 127.933594 387.128906 134.382813 388.429688 139.851563 389.476563 C 141.339844 389.761719 142.828125 390.039063 144.316406 390.316406 L 144.960938 390.433594 C 145.492188 390.527344 146.027344 390.621094 146.554688 390.742188 C 146.628906 390.746094 146.714844 390.757813 146.808594 390.765625 C 147.921875 390.867188 149.449219 391.011719 150.5625 392.265625 C 151.730469 393.585938 151.589844 395.152344 151.546875 395.667969 C 151.5625 396.398438 151.582031 397.136719 151.597656 397.875 C 151.628906 399.394531 151.652344 400.910156 151.675781 402.425781 L 151.679688 402.824219 C 151.738281 406.59375 151.480469 409.796875 150.871094 412.902344 C 150.289063 415.871094 149.519531 419.039063 148.515625 422.585938 C 146.664063 429.140625 144.679688 435.078125 142.453125 440.730469 C 138.078125 451.84375 132.429688 462.902344 125.179688 474.527344 C 122.613281 478.640625 119.703125 482.996094 116.125 488.0625 C 125.929688 482.792969 135.050781 476.53125 143.289063 469.417969 C 145.757813 467.289063 148.15625 465.109375 150.175781 463.261719 L 155.257813 458.585938 C 155.761719 458.042969 156.9375 456.773438 158.859375 456.769531 C 159.429688 456.769531 159.984375 456.878906 160.519531 457.105469 C 165.882813 459.347656 171.6875 461.683594 177.78125 463.570313 C 190.34375 467.464844 202.90625 470.675781 215.125 473.125 C 228.984375 475.898438 241.5 477.304688 253.386719 477.421875 C 259.976563 477.492188 266.4375 477.148438 272.390625 476.410156 C 278.046875 475.707031 284.125 474.449219 290.980469 472.5625 C 316.585938 465.519531 338.179688 454.652344 355.15625 440.261719 C 363.421875 433.261719 370.347656 425.136719 375.746094 416.121094 C 378.417969 411.660156 380.804688 406.894531 382.839844 401.957031 C 383.839844 399.53125 384.769531 397.03125 385.601563 394.519531 C 385.957031 393.449219 386.273438 392.363281 386.589844 391.28125 C 387.050781 389.699219 387.527344 388.066406 388.125 386.441406 C 390.152344 380.945313 393.15625 376.5 397.058594 373.222656 C 397.902344 372.511719 398.828125 371.808594 399.816406 371.132813 C 399.179688 370.609375 398.496094 370.097656 397.765625 369.546875 "/>
<g clip-path="url(#clip1)" clip-rule="nonzero">
<path style=" stroke:none;fill-rule:nonzero;fill:rgb(100%,78.399658%,16.899109%);fill-opacity:1;" d="M 344.257813 392.730469 C 344.242188 392.871094 344.226563 393.007813 344.214844 393.148438 L 344.210938 393.164063 C 344.210938 393.167969 344.210938 393.167969 344.210938 393.167969 L 344.207031 393.195313 C 343.976563 395.671875 343.238281 397.988281 342.066406 399.894531 L 341.632813 400.605469 C 340.25 402.871094 338.945313 405.015625 337.289063 406.683594 C 333.8125 410.195313 329.460938 413.453125 323.601563 416.929688 C 320.945313 418.507813 318.117188 419.941406 315.457031 421.257813 C 314.664063 421.652344 313.875 422.050781 313.089844 422.449219 C 311 423.5 309.027344 424.496094 306.988281 425.386719 C 301.753906 427.671875 295.949219 429.660156 289.746094 431.296875 C 277.386719 434.546875 265.121094 436.214844 253.292969 436.242188 L 252.628906 436.242188 C 240.894531 436.210938 228.519531 434.679688 214.78125 431.554688 C 210.085938 430.484375 205.046875 429.097656 199.371094 427.308594 C 197.0625 426.582031 194.746094 425.890625 192.429688 425.199219 C 190.816406 424.71875 189.175781 424.226563 187.539063 423.722656 C 189.839844 418.320313 191.539063 413.527344 192.816406 408.867188 C 193.738281 405.492188 194.511719 402.105469 195.082031 399.535156 C 195.183594 399.082031 195.289063 398.628906 195.394531 398.175781 C 195.605469 397.289063 195.820313 396.378906 196 395.4375 C 199.402344 395.320313 202.761719 395.222656 206.136719 395.214844 C 215.753906 395.1875 223.003906 395.90625 229.640625 397.535156 C 237.613281 399.492188 248.660156 403.601563 255.980469 412.078125 C 257.492188 413.828125 258.707031 415.691406 259.589844 417.617188 L 259.769531 418.007813 C 260.558594 419.785156 262.203125 423.476563 265.941406 423.78125 C 266.089844 423.792969 266.230469 423.796875 266.371094 423.796875 C 267.199219 423.792969 271.339844 423.472656 271.464844 417.289063 C 271.488281 416.1875 271.425781 415.136719 271.363281 414.117188 C 271.320313 413.4375 271.277344 412.753906 271.269531 412.074219 C 271.191406 406.074219 271.105469 399.277344 269.570313 392.621094 C 267.921875 385.476563 265.191406 379.453125 261.449219 374.734375 C 260.972656 374.128906 260.429688 373.585938 259.902344 373.0625 C 259.449219 372.613281 258.734375 371.898438 258.472656 371.46875 C 258.707031 371 259.125 370.449219 259.566406 369.863281 C 259.855469 369.484375 260.140625 369.105469 260.402344 368.726563 C 261.371094 367.324219 262.289063 365.800781 263.125 364.207031 C 266.027344 358.699219 268.105469 352.441406 269.304688 345.597656 C 270.464844 338.972656 270.449219 332.472656 270.324219 325.847656 C 270.320313 325.542969 270.320313 325.234375 270.320313 324.925781 C 270.324219 323.710938 270.324219 322.335938 270.007813 320.90625 C 269.5 318.609375 267.621094 316.289063 265.007813 316.296875 C 263.710938 316.300781 262.484375 316.890625 261.5625 317.953125 C 260.285156 319.433594 260.144531 321.222656 260.058594 322.292969 C 260.046875 322.484375 260.03125 322.671875 260.007813 322.84375 C 259.835938 323.957031 259.484375 325.144531 258.964844 326.371094 C 255.6875 334.082031 248.316406 340.816406 238.203125 345.328125 C 233.40625 347.472656 228.109375 349.121094 222.015625 350.367188 C 216.664063 351.460938 211.3125 351.949219 205.640625 352.46875 L 203.101563 352.703125 C 201.496094 352.855469 199.921875 353.007813 198.34375 353.210938 C 198.339844 353.195313 198.339844 353.175781 198.339844 353.160156 C 198.171875 351.28125 197.988281 349.597656 197.773438 348.011719 C 197.554688 346.394531 197.265625 344.808594 196.980469 343.273438 C 196.679688 341.636719 196.398438 340.089844 196.199219 338.53125 C 195.734375 334.878906 195.246094 331.671875 194.710938 328.726563 C 194.078125 325.246094 193.390625 321.863281 192.796875 319.007813 C 192.722656 318.636719 192.625 318.265625 192.53125 317.890625 C 192.453125 317.601563 192.355469 317.226563 192.300781 316.925781 C 192.347656 316.910156 192.394531 316.894531 192.449219 316.875 C 198.25 315.097656 204.472656 313.261719 210.6875 311.839844 C 223.195313 308.984375 235.917969 307.484375 248.5 307.378906 L 249.460938 307.375 C 262.046875 307.34375 274.375 308.722656 286.097656 311.472656 C 292.101563 312.882813 298.125 314.710938 304.007813 316.90625 C 308.730469 318.671875 314.890625 321.109375 320.679688 324.328125 C 329.734375 329.363281 336.289063 336.53125 339.136719 344.515625 C 341.101563 350.03125 340.988281 354.273438 338.796875 357.484375 C 337.640625 359.167969 335.925781 360.761719 333.554688 362.359375 C 332.476563 363.085938 331.285156 363.699219 330.019531 364.347656 C 329.183594 364.777344 328.34375 365.210938 327.464844 365.707031 C 326.746094 366.113281 325.066406 367.0625 324.558594 368.949219 C 324.273438 369.988281 324.414063 371.078125 324.957031 372.007813 C 325.921875 373.671875 327.628906 374.109375 328.441406 374.320313 L 328.875 374.429688 C 329.503906 374.59375 330.042969 374.734375 330.511719 374.917969 C 333.140625 375.972656 335.796875 377.613281 338.1875 379.671875 C 342.390625 383.296875 344.660156 388.175781 344.257813 392.730469 Z M 347.691406 393.523438 C 348.015625 390.835938 347.5625 394.933594 347.691406 393.523438 Z M 342.753906 374.371094 C 340.460938 372.390625 337.941406 370.710938 335.375 369.4375 C 336.070313 369.050781 336.769531 368.632813 337.464844 368.167969 C 340.582031 366.066406 342.90625 363.867188 344.570313 361.441406 C 348.074219 356.320313 348.464844 349.835938 345.730469 342.164063 C 342.3125 332.578125 334.625 324.074219 324.082031 318.207031 C 317.886719 314.765625 311.40625 312.199219 306.453125 310.351563 C 300.296875 308.050781 293.988281 306.136719 287.699219 304.660156 C 275.445313 301.78125 262.574219 300.339844 249.441406 300.375 L 248.445313 300.378906 C 235.355469 300.488281 222.128906 302.046875 209.132813 305.015625 C 202.695313 306.484375 196.328125 308.367188 190.398438 310.183594 C 186.914063 311.25 185.765625 313.398438 185.417969 315.003906 C 185.023438 316.828125 185.445313 318.453125 185.753906 319.644531 C 185.820313 319.90625 185.890625 320.171875 185.945313 320.429688 C 186.527344 323.238281 187.203125 326.570313 187.824219 329.980469 C 188.335938 332.800781 188.804688 335.890625 189.253906 339.414063 C 189.476563 341.164063 189.792969 342.878906 190.097656 344.539063 C 190.378906 346.058594 190.640625 347.496094 190.839844 348.949219 C 191.035156 350.425781 191.210938 352 191.363281 353.769531 C 191.425781 354.476563 191.480469 355.183594 191.53125 355.890625 C 191.359375 358.105469 192.386719 359.28125 193.28125 359.882813 C 194.011719 360.371094 194.863281 360.617188 195.8125 360.613281 C 196.425781 360.613281 196.945313 360.507813 197.292969 360.433594 L 197.429688 360.40625 C 197.921875 360.324219 198.421875 360.257813 198.917969 360.195313 L 199.230469 360.15625 C 200.699219 359.964844 202.210938 359.816406 203.761719 359.671875 L 206.277344 359.441406 C 211.886719 358.925781 217.6875 358.394531 223.417969 357.222656 C 230.019531 355.875 235.789063 354.074219 241.058594 351.722656 C 248.371094 348.457031 257.753906 342.6875 263.363281 333.164063 C 263.296875 336.953125 263.054688 340.695313 262.40625 344.394531 C 261.339844 350.515625 259.496094 356.082031 256.933594 360.945313 C 256.222656 362.292969 255.453125 363.574219 254.640625 364.75 C 254.4375 365.050781 254.210938 365.34375 253.984375 365.640625 C 253.253906 366.605469 252.425781 367.703125 251.871094 369.089844 C 250.203125 373.273438 253.296875 376.359375 254.960938 378.019531 C 255.359375 378.417969 255.738281 378.796875 255.960938 379.078125 C 259.054688 382.980469 261.335938 388.066406 262.75 394.195313 C 264.066406 399.914063 264.1875 405.820313 264.261719 411.550781 C 263.394531 410.152344 262.398438 408.800781 261.277344 407.503906 C 252.75 397.628906 240.273438 392.933594 231.308594 390.734375 C 224.097656 388.964844 216.328125 388.1875 206.121094 388.214844 C 202.007813 388.222656 197.972656 388.359375 193.851563 388.507813 C 192.582031 388.554688 189.59375 389.132813 189.210938 393.484375 C 189.199219 393.617188 189.195313 393.753906 189.171875 393.882813 C 189.007813 394.757813 188.800781 395.640625 188.582031 396.574219 C 188.46875 397.054688 188.355469 397.53125 188.25 398.015625 C 187.695313 400.511719 186.945313 403.792969 186.0625 407.019531 C 184.609375 412.324219 182.546875 417.863281 179.574219 424.449219 L 177.96875 428.011719 L 181.683594 429.21875 C 184.597656 430.164063 187.558594 431.050781 190.425781 431.90625 C 192.710938 432.589844 194.992188 433.269531 197.265625 433.988281 C 203.125 435.832031 208.347656 437.269531 213.230469 438.378906 C 227.476563 441.617188 240.355469 443.210938 252.609375 443.242188 L 253.3125 443.242188 C 265.734375 443.210938 278.589844 441.46875 291.527344 438.0625 C 298.082031 436.339844 304.226563 434.234375 309.789063 431.800781 C 312.007813 430.832031 314.160156 429.746094 316.242188 428.695313 C 317.015625 428.308594 317.785156 427.917969 318.5625 427.535156 C 321.347656 426.15625 324.316406 424.648438 327.175781 422.949219 C 333.5625 419.15625 338.355469 415.554688 342.261719 411.613281 C 344.492188 409.363281 346.078125 406.761719 347.609375 404.246094 L 348.035156 403.554688 C 349.695313 400.839844 350.765625 397.628906 351.132813 394.3125 C 351.257813 393.746094 351.34375 393.0625 351.289063 392.382813 C 351.523438 385.886719 348.386719 379.222656 342.753906 374.371094 Z M 181.527344 157.8125 C 181.570313 157.921875 181.574219 157.9375 181.566406 157.921875 C 181.550781 157.890625 181.46875 157.691406 181.527344 157.8125 Z M 187.371094 158.082031 C 188.035156 157.800781 188.695313 157.523438 189.363281 157.253906 C 192.425781 156.019531 195.621094 155.097656 198.0625 154.433594 C 203.980469 152.816406 210.199219 151.621094 216.539063 150.882813 C 229.105469 149.410156 241.988281 149.660156 254.382813 151.605469 C 267.335938 153.644531 277.882813 157.25 286.617188 162.632813 C 288.390625 163.722656 290.617188 165.222656 292.15625 167.15625 C 293.53125 168.882813 294.53125 171.070313 295.054688 173.484375 C 296.007813 177.875 294.984375 182.804688 292.246094 187.003906 C 290.925781 189.035156 289.246094 190.886719 287.253906 192.515625 C 286.34375 193.261719 285.363281 193.9375 284.34375 194.53125 C 284.035156 194.707031 283.695313 194.871094 283.351563 195.039063 C 282.375 195.515625 281.269531 196.054688 280.277344 196.933594 C 279.199219 197.886719 278.738281 199.273438 279.050781 200.640625 C 279.628906 203.179688 282.261719 203.925781 284.1875 204.472656 L 284.4375 204.539063 C 287.152344 205.5 289.683594 206.71875 291.953125 208.164063 C 295.035156 210.128906 299.078125 213.464844 300.847656 218.214844 C 302.347656 222.25 301.785156 227.03125 299.339844 231.007813 C 296.882813 235.003906 293.070313 237.902344 288.34375 241.273438 C 283.671875 244.605469 278.535156 247.539063 273.074219 249.992188 C 262.882813 254.570313 251.164063 257.636719 238.246094 259.097656 C 232.171875 259.789063 225.867188 260.128906 218.96875 260.148438 C 217.421875 260.152344 215.871094 260.140625 214.320313 260.113281 C 207.886719 259.996094 201.054688 259.746094 194.183594 258.808594 C 198.820313 234.570313 198.527344 209.140625 193.308594 185.019531 L 189.425781 170.589844 C 189.132813 169.65625 188.847656 168.714844 188.558594 167.769531 C 187.65625 164.816406 186.730469 161.78125 185.648438 158.800781 C 186.222656 158.566406 186.800781 158.324219 187.371094 158.082031 Z M 178.570313 155.371094 C 177.863281 156.539063 178.472656 159.378906 178.621094 160.019531 C 179.832031 163.1875 180.867188 166.550781 181.863281 169.8125 C 182.15625 170.769531 182.445313 171.722656 182.742188 172.671875 C 184.382813 177.945313 185.566406 182.339844 186.464844 186.5 C 191.738281 210.867188 191.789063 236.621094 186.605469 260.980469 L 185.847656 264.539063 L 189.429688 265.160156 C 197.980469 266.636719 206.746094 266.976563 214.195313 267.109375 C 215.792969 267.140625 217.390625 267.152344 218.988281 267.148438 C 226.144531 267.128906 232.699219 266.773438 239.03125 266.054688 C 252.675781 264.507813 265.09375 261.253906 275.941406 256.378906 C 281.820313 253.734375 287.363281 250.570313 292.40625 246.972656 C 296.640625 243.953125 301.90625 240.195313 305.300781 234.675781 C 308.867188 228.878906 309.65625 221.8125 307.40625 215.773438 C 305.472656 210.574219 301.429688 205.902344 295.714844 202.261719 C 293.925781 201.121094 292.011719 200.105469 289.996094 199.21875 C 290.574219 198.808594 291.140625 198.382813 291.6875 197.933594 C 294.234375 195.847656 296.394531 193.457031 298.109375 190.824219 C 301.863281 185.066406 303.242188 178.207031 301.894531 172 C 301.144531 168.546875 299.675781 165.363281 297.640625 162.804688 C 295.421875 160.011719 292.546875 158.058594 290.289063 156.671875 C 280.746094 150.796875 269.359375 146.878906 255.472656 144.691406 C 242.449219 142.644531 228.917969 142.382813 215.726563 143.929688 C 209.039063 144.710938 202.476563 145.972656 196.21875 147.679688 C 193.59375 148.394531 190.144531 149.390625 186.75 150.761719 C 186.046875 151.042969 185.347656 151.335938 184.648438 151.632813 C 183.808594 151.988281 182.964844 152.34375 182.109375 152.679688 L 181.929688 152.746094 C 181.394531 152.949219 180.605469 153.265625 179.84375 153.886719 C 179.441406 154.234375 178.957031 154.734375 178.570313 155.371094 Z M 399.820313 366.703125 C 399.007813 365.832031 401.265625 367.78125 399.820313 366.703125 Z M 397.070313 373.222656 C 393.171875 376.5 390.167969 380.945313 388.140625 386.441406 C 387.542969 388.066406 387.066406 389.699219 386.605469 391.28125 C 386.289063 392.363281 385.972656 393.449219 385.617188 394.519531 C 384.785156 397.03125 383.855469 399.53125 382.855469 401.957031 C 380.820313 406.894531 378.433594 411.660156 375.765625 416.121094 C 370.363281 425.136719 363.4375 433.261719 355.175781 440.261719 C 338.195313 454.652344 316.601563 465.519531 290.996094 472.5625 C 284.140625 474.449219 278.0625 475.707031 272.402344 476.410156 C 266.453125 477.148438 259.992188 477.492188 253.398438 477.421875 C 241.515625 477.304688 229 475.898438 215.140625 473.125 C 202.921875 470.675781 190.359375 467.464844 177.800781 463.570313 C 171.703125 461.683594 165.898438 459.347656 160.53125 457.105469 C 160 456.878906 159.441406 456.769531 158.875 456.769531 C 156.949219 456.773438 155.773438 458.042969 155.273438 458.585938 L 150.191406 463.261719 C 148.171875 465.109375 145.773438 467.289063 143.304688 469.417969 C 135.066406 476.53125 125.941406 482.792969 116.140625 488.0625 C 119.71875 482.996094 122.628906 478.640625 125.195313 474.527344 C 132.441406 462.902344 138.09375 451.84375 142.46875 440.730469 C 144.695313 435.078125 146.679688 429.140625 148.53125 422.585938 C 149.535156 419.039063 150.304688 415.871094 150.886719 412.902344 C 151.496094 409.796875 151.753906 406.59375 151.695313 402.824219 L 151.6875 402.425781 C 151.667969 400.910156 151.644531 399.394531 151.613281 397.875 C 151.597656 397.136719 151.578125 396.398438 151.5625 395.667969 C 151.605469 395.152344 151.746094 393.585938 150.574219 392.265625 C 149.464844 391.011719 147.9375 390.867188 146.820313 390.765625 C 146.730469 390.757813 146.644531 390.746094 146.570313 390.742188 C 146.042969 390.621094 145.507813 390.527344 144.972656 390.433594 L 144.335938 390.316406 C 142.84375 390.039063 141.355469 389.761719 139.867188 389.476563 C 134.398438 388.429688 127.949219 387.128906 121.585938 385.402344 C 108.742188 381.914063 96.988281 376.082031 87.183594 370.839844 C 86.339844 370.390625 85.484375 369.957031 84.625 369.523438 C 82.765625 368.589844 81.011719 367.710938 79.449219 366.644531 C 79.320313 366.558594 79.179688 366.441406 79.03125 366.320313 C 78.03125 365.535156 76.523438 364.339844 74.488281 364.34375 C 73.855469 364.347656 73.238281 364.46875 72.65625 364.707031 C 71.277344 365.273438 70.308594 366.257813 69.53125 367.046875 C 69.332031 367.246094 69.140625 367.449219 68.949219 367.613281 C 64.472656 371.507813 59.660156 374.769531 54.65625 377.304688 C 49.53125 379.898438 44.011719 381.757813 38.246094 382.824219 C 33.453125 383.710938 28.566406 384.183594 24.066406 384.484375 C 27.933594 382.105469 31.394531 379.410156 34.394531 376.4375 C 42.199219 368.699219 48.230469 357.949219 52.324219 344.484375 C 55.792969 333.074219 57.671875 320.621094 58.070313 306.417969 C 58.429688 293.644531 57.894531 280.3125 56.480469 266.792969 C 55.382813 256.324219 53.578125 242.628906 49.289063 229.5625 C 47.265625 223.398438 44.785156 217.78125 41.921875 212.875 C 39.925781 209.453125 36.773438 204.671875 31.925781 201.5 C 32.089844 201.394531 32.257813 201.28125 32.421875 201.164063 C 33.660156 200.289063 34.878906 199.277344 36.15625 198.066406 C 40.144531 194.285156 43.3125 189.222656 45.578125 183.027344 C 48.027344 176.320313 49.507813 169.425781 50.527344 164.167969 C 51.722656 158 52.675781 151.414063 53.359375 144.597656 C 54.609375 132.117188 55.109375 118.855469 54.847656 105.183594 C 54.570313 90.785156 53.390625 79.257813 51.132813 68.90625 C 47.429688 51.9375 38.605469 28.246094 17.574219 11.738281 C 16.402344 10.820313 15.21875 9.945313 14.023438 9.121094 C 16.292969 9.132813 18.640625 9.195313 21.164063 9.308594 C 28.542969 9.644531 34.078125 10.398438 39.101563 11.765625 C 44.570313 13.25 49.8125 15.535156 54.683594 18.5625 C 57.0625 20.039063 59.351563 21.695313 61.492188 23.484375 C 61.71875 23.675781 61.957031 23.925781 62.222656 24.1875 C 63.511719 25.480469 65.460938 27.429688 68.152344 27.421875 C 69.476563 27.417969 70.738281 26.929688 71.804688 26.003906 C 72.570313 25.339844 73.144531 24.625 73.652344 23.992188 C 73.949219 23.617188 74.234375 23.265625 74.488281 23.011719 C 75.207031 22.300781 76.046875 21.597656 77.207031 20.726563 C 79.632813 18.910156 81.820313 17.441406 83.898438 16.238281 C 92.855469 11.050781 103.519531 8.027344 115.585938 7.257813 C 117.4375 7.136719 119.335938 7.066406 121.351563 7.042969 C 118.285156 9.277344 115.527344 11.65625 113.015625 14.234375 C 105.320313 22.128906 98.992188 32.050781 94.207031 43.726563 C 85.8125 64.199219 82.585938 87.890625 84.339844 116.160156 C 85.28125 131.289063 86.761719 143.742188 89 155.34375 C 90.953125 165.449219 94.121094 178.476563 101.375 189.570313 C 103.261719 192.457031 105.160156 194.871094 107.183594 196.957031 C 108.289063 198.097656 109.410156 199.09375 110.605469 199.988281 C 109.605469 200.679688 108.601563 201.539063 107.496094 202.644531 C 105.417969 204.726563 103.53125 207.210938 101.5625 210.464844 C 96.027344 219.597656 92.546875 230.394531 90.269531 245.476563 C 88.476563 257.378906 87.65625 270.351563 87.765625 285.144531 C 87.855469 296.996094 87.953125 310.433594 92.65625 322.71875 C 96.621094 333.082031 103.953125 342.585938 113.304688 349.476563 C 118.269531 353.132813 123.847656 356.070313 129.886719 358.199219 C 136.40625 360.503906 143.308594 361.566406 149.203125 362.300781 L 153.035156 362.78125 L 153.136719 358.917969 C 153.429688 347.480469 149.867188 336.519531 146.34375 327.304688 C 142.722656 317.828125 137.859375 308.367188 131.894531 299.183594 C 130.347656 296.804688 128.5 293.988281 126.523438 291.160156 C 125.480469 289.664063 124.542969 288.464844 123.574219 287.378906 C 123.542969 287.347656 123.515625 287.3125 123.484375 287.285156 C 123.597656 287.167969 123.710938 287.050781 123.804688 286.953125 C 124.050781 286.699219 124.296875 286.449219 124.515625 286.195313 C 125.460938 285.113281 126.199219 283.9375 126.847656 282.90625 L 127.164063 282.402344 C 129.039063 279.449219 130.597656 276.972656 132.128906 274.3125 C 138.507813 263.210938 143.390625 251.449219 146.644531 239.359375 C 153.023438 215.617188 153.5625 190.199219 148.207031 165.847656 C 143.144531 142.847656 133.128906 120.292969 118.433594 98.8125 C 115.421875 94.410156 112.222656 90.09375 108.898438 85.953125 C 110.152344 86.628906 111.40625 87.289063 112.664063 87.953125 C 116.253906 89.847656 119.96875 91.804688 123.4375 93.953125 C 128.277344 96.949219 133.023438 100.328125 137.539063 103.996094 C 141.613281 107.304688 145.878906 111.1875 150.570313 115.871094 C 153.019531 118.308594 154.945313 120.378906 156.632813 122.382813 C 156.90625 122.703125 157.171875 123.058594 157.441406 123.414063 C 158.890625 125.332031 161.074219 128.222656 164.949219 128.214844 C 165.339844 128.214844 165.738281 128.179688 166.140625 128.113281 C 167.78125 127.851563 169.175781 127.203125 170.402344 126.632813 C 170.761719 126.46875 171.117188 126.300781 171.472656 126.152344 C 172.832031 125.578125 174.183594 125.066406 175.480469 124.625 C 178.449219 123.613281 181.523438 122.8125 184.402344 122.101563 C 190.632813 120.554688 196.929688 119.242188 203.121094 118.199219 C 213.605469 116.429688 223.90625 115.523438 233.734375 115.496094 C 249.503906 115.457031 264.351563 117.683594 277.859375 122.121094 C 288.65625 125.664063 299.441406 130.917969 309.914063 137.738281 C 321.0625 144.996094 328.914063 151.894531 334.621094 159.457031 C 338.285156 164.308594 340.820313 169.695313 342.617188 173.84375 L 342.878906 174.453125 C 345.222656 179.855469 347.640625 185.445313 351.234375 190.503906 C 352.921875 192.878906 354.871094 195.15625 357.191406 197.476563 C 357.246094 197.527344 357.320313 197.597656 357.402344 197.675781 L 357.34375 197.726563 C 353.097656 201.324219 349.589844 206.230469 346.917969 212.308594 C 346.039063 214.300781 345.484375 216.308594 344.945313 218.253906 C 344.664063 219.273438 344.394531 220.238281 344.089844 221.183594 C 342.992188 224.558594 342.054688 227.261719 341.136719 229.683594 C 339.941406 232.832031 338.808594 235.335938 337.5625 237.570313 C 337.125 238.351563 336.699219 239.136719 336.269531 239.925781 C 335.199219 241.902344 334.1875 243.773438 333.03125 245.539063 C 330.21875 249.828125 326.445313 254.03125 321.496094 258.394531 C 319.296875 260.335938 316.953125 262.226563 314.535156 264.007813 C 313.429688 264.824219 312.296875 265.589844 311.09375 266.402344 C 309.734375 267.320313 308.328125 268.273438 306.960938 269.304688 L 301.710938 273.265625 L 307.925781 275.410156 C 317.6875 278.773438 327.464844 283.339844 337.824219 289.355469 C 348.4375 295.53125 356.457031 301.429688 363.050781 307.925781 C 370.234375 315 376.226563 323.988281 381.371094 335.398438 C 383.828125 340.855469 386.035156 346.714844 387.925781 352.8125 L 388.007813 353.078125 C 388.898438 355.957031 389.820313 358.933594 391.335938 361.792969 C 392.171875 363.359375 393.152344 364.820313 394.261719 366.132813 C 394.898438 366.886719 395.582031 367.511719 396.183594 368.058594 C 396.578125 368.421875 396.953125 368.761719 397.261719 369.09375 L 397.476563 369.320313 L 397.726563 369.511719 C 397.742188 369.523438 397.761719 369.535156 397.777344 369.546875 C 398.511719 370.097656 399.191406 370.609375 399.832031 371.132813 C 398.847656 371.808594 397.917969 372.511719 397.070313 373.222656 Z M 405.457031 366.71875 L 405.261719 366.558594 C 404.441406 365.832031 403.597656 365.171875 402.738281 364.519531 C 402.445313 364.195313 402.105469 363.910156 401.746094 363.675781 C 401.453125 363.394531 401.167969 363.132813 400.902344 362.890625 C 400.414063 362.445313 399.953125 362.023438 399.609375 361.617188 C 398.824219 360.683594 398.117188 359.636719 397.519531 358.507813 C 396.3125 356.234375 395.523438 353.695313 394.691406 351.007813 L 394.609375 350.742188 C 392.636719 344.371094 390.328125 338.242188 387.753906 332.523438 C 382.246094 320.308594 375.773438 310.632813 367.964844 302.9375 C 360.9375 296.019531 352.480469 289.78125 341.339844 283.304688 C 332.820313 278.355469 324.660156 274.347656 316.566406 271.144531 C 317.273438 270.660156 317.984375 270.160156 318.6875 269.640625 C 321.269531 267.738281 323.773438 265.722656 326.128906 263.644531 C 331.550781 258.863281 335.722656 254.195313 338.882813 249.378906 C 340.203125 247.367188 341.335938 245.277344 342.429688 243.257813 C 342.839844 242.496094 343.253906 241.734375 343.671875 240.980469 C 345.089844 238.441406 346.363281 235.640625 347.679688 232.164063 C 348.640625 229.632813 349.613281 226.832031 350.746094 223.347656 C 351.101563 222.257813 351.402344 221.171875 351.691406 220.117188 C 352.1875 218.339844 352.652344 216.65625 353.324219 215.125 C 355.566406 210.027344 358.4375 205.972656 361.867188 203.066406 L 362.101563 202.871094 C 363.117188 202.023438 364.648438 200.742188 365.234375 198.707031 C 366.019531 195.976563 363.730469 193.941406 362.367188 192.726563 C 362.269531 192.636719 362.183594 192.5625 362.136719 192.519531 C 360.097656 190.484375 358.394531 188.496094 356.941406 186.449219 C 353.773438 181.992188 351.601563 176.976563 349.304688 171.671875 L 349.039063 171.0625 C 347.085938 166.554688 344.316406 160.683594 340.207031 155.238281 C 333.996094 147.011719 325.582031 139.585938 313.734375 131.871094 C 302.75 124.722656 291.414063 119.203125 280.042969 115.46875 C 265.820313 110.800781 250.234375 108.453125 233.71875 108.496094 C 223.507813 108.523438 212.820313 109.464844 201.957031 111.296875 C 195.589844 112.371094 189.117188 113.71875 182.71875 115.304688 C 179.6875 116.058594 176.441406 116.902344 173.226563 117.996094 C 171.773438 118.492188 170.273438 119.0625 168.761719 119.695313 C 168.324219 119.882813 167.890625 120.082031 167.453125 120.285156 C 166.558594 120.703125 165.710938 121.09375 164.929688 121.214844 C 164.550781 121.214844 163.519531 119.851563 163.023438 119.195313 C 162.679688 118.734375 162.335938 118.285156 161.984375 117.871094 C 160.160156 115.710938 158.105469 113.5 155.515625 110.914063 C 150.648438 106.0625 146.214844 102.019531 141.949219 98.5625 C 137.203125 94.707031 132.214844 91.15625 127.121094 88 C 123.445313 85.726563 119.625 83.710938 115.929688 81.761719 C 114.207031 80.851563 112.480469 79.941406 110.769531 79.007813 C 109.738281 78.441406 107.054688 77.128906 104.480469 77.132813 C 103.691406 77.136719 102.953125 77.257813 102.277344 77.496094 C 101.207031 77.875 98.789063 79.21875 99.472656 83.496094 C 99.820313 85.675781 100.785156 87.09375 101.78125 88.296875 C 105.585938 92.910156 109.246094 97.777344 112.65625 102.765625 C 126.839844 123.5 136.5 145.230469 141.367188 167.351563 C 146.484375 190.613281 145.972656 214.882813 139.882813 237.542969 C 136.789063 249.050781 132.136719 260.246094 126.058594 270.824219 C 124.601563 273.363281 123.085938 275.769531 121.253906 278.652344 L 120.917969 279.183594 C 120.355469 280.078125 119.828125 280.921875 119.25 281.585938 C 119.105469 281.746094 118.949219 281.90625 118.789063 282.070313 C 117.964844 282.914063 116.722656 284.195313 116.316406 286.128906 C 115.703125 289.089844 117.632813 291.242188 118.359375 292.054688 C 119.136719 292.921875 119.90625 293.910156 120.785156 295.164063 C 122.703125 297.914063 124.507813 300.664063 126.023438 302.996094 C 131.722656 311.769531 136.359375 320.789063 139.804688 329.804688 C 142.664063 337.28125 145.550781 345.945313 146.070313 354.816406 C 141.480469 354.140625 136.757813 353.203125 132.214844 351.601563 C 126.832031 349.699219 121.863281 347.085938 117.453125 343.839844 C 109.171875 337.738281 102.6875 329.347656 99.191406 320.21875 C 94.945313 309.113281 94.855469 296.902344 94.765625 285.09375 C 94.660156 270.671875 95.453125 258.054688 97.191406 246.519531 C 99.324219 232.398438 102.515625 222.398438 107.546875 214.089844 C 109.21875 211.328125 110.777344 209.265625 112.449219 207.589844 C 113.414063 206.625 114.210938 205.960938 114.957031 205.507813 C 115.050781 205.449219 115.171875 205.390625 115.308594 205.320313 C 116.585938 204.660156 120.46875 202.648438 119.257813 198.871094 C 118.605469 196.832031 116.824219 195.710938 115.648438 194.96875 C 115.464844 194.847656 115.285156 194.742188 115.144531 194.636719 C 114.121094 193.902344 113.160156 193.066406 112.210938 192.085938 C 110.5 190.324219 108.875 188.246094 107.234375 185.738281 C 100.648438 175.667969 97.703125 163.496094 95.875 154.015625 C 93.691406 142.71875 92.246094 130.550781 91.328125 115.726563 C 89.640625 88.535156 92.699219 65.855469 100.683594 46.382813 C 105.128906 35.539063 110.964844 26.367188 118.027344 19.121094 C 121.757813 15.292969 126.132813 11.929688 131.402344 8.828125 C 133.105469 7.828125 134.070313 6 133.867188 4.167969 C 133.671875 2.425781 132.445313 0.992188 130.667969 0.425781 C 129.449219 0.0390625 128.265625 -0.0078125 127.367188 -0.00390625 C 126.964844 -0.00390625 126.558594 0.0117188 126.15625 0.0234375 C 125.847656 0.0351563 125.539063 0.046875 125.246094 0.046875 L 125.097656 0.046875 C 124.28125 0.0351563 123.46875 0.03125 122.652344 0.03125 C 119.988281 0.0390625 117.53125 0.117188 115.140625 0.269531 C 101.984375 1.113281 90.292969 4.445313 80.390625 10.183594 C 78.074219 11.523438 75.660156 13.140625 73.011719 15.125 C 71.605469 16.179688 70.511719 17.105469 69.574219 18.03125 C 69.027344 18.570313 68.582031 19.125 68.1875 19.613281 C 68.09375 19.730469 68.003906 19.847656 67.910156 19.957031 C 67.644531 19.710938 67.367188 19.433594 67.171875 19.238281 C 66.792969 18.859375 66.398438 18.464844 65.984375 18.117188 C 63.59375 16.117188 61.03125 14.265625 58.375 12.617188 C 52.925781 9.230469 47.058594 6.671875 40.933594 5.011719 C 35.394531 3.503906 29.394531 2.675781 21.480469 2.316406 C 18.378906 2.175781 15.523438 2.113281 12.75 2.117188 L 11.632813 2.125 C 10.511719 2.136719 9.390625 2.15625 8.273438 2.175781 L 6.839844 2.203125 L 6.394531 2.195313 C 6.1875 2.191406 5.976563 2.1875 5.765625 2.191406 C 4.871094 2.191406 3.695313 2.261719 2.519531 2.777344 C 1.046875 3.425781 0.109375 4.714844 0.0078125 6.226563 C -0.101563 7.933594 0.867188 9.535156 2.664063 10.625 C 3.417969 11.078125 4.175781 11.4375 4.847656 11.753906 C 5.386719 12.007813 5.894531 12.246094 6.320313 12.5 C 8.644531 13.863281 10.976563 15.460938 13.253906 17.246094 C 32.648438 32.46875 40.835938 54.550781 44.292969 70.398438 C 46.453125 80.292969 47.582031 91.386719 47.847656 105.316406 C 48.105469 118.714844 47.617188 131.695313 46.394531 143.898438 C 45.730469 150.503906 44.808594 156.875 43.65625 162.839844 C 42.6875 167.839844 41.28125 174.382813 39 180.625 C 37.109375 185.796875 34.53125 189.957031 31.339844 192.988281 C 30.308594 193.964844 29.339844 194.769531 28.375 195.453125 C 28.105469 195.644531 27.742188 195.855469 27.355469 196.078125 C 26.445313 196.609375 25.308594 197.269531 24.359375 198.277344 C 23.347656 199.351563 22.90625 200.710938 23.117188 202.101563 C 23.515625 204.722656 26.023438 206.148438 27.230469 206.835938 L 27.332031 206.894531 C 30.398438 208.644531 33.113281 211.664063 35.878906 216.402344 C 38.492188 220.886719 40.765625 226.046875 42.636719 231.746094 C 46.71875 244.183594 48.457031 257.398438 49.515625 267.523438 C 50.898438 280.734375 51.421875 293.753906 51.074219 306.222656 C 50.695313 319.792969 48.910156 331.644531 45.628906 342.449219 C 41.875 354.789063 36.4375 364.554688 29.464844 371.464844 C 25.769531 375.132813 21.238281 378.328125 16.003906 380.976563 C 14.839844 381.5625 13.59375 382.152344 12.378906 382.691406 L 12.164063 382.769531 C 10.527344 383.359375 8.054688 384.246094 7.417969 386.589844 C 7.082031 387.820313 7.359375 389.089844 8.179688 390.078125 C 9.46875 391.632813 11.332031 391.695313 12.03125 391.714844 L 12.160156 391.722656 C 12.988281 391.777344 13.820313 391.8125 14.648438 391.828125 C 16.335938 391.859375 18 391.828125 19.949219 391.734375 C 25.789063 391.441406 32.679688 390.972656 39.523438 389.707031 C 45.945313 388.519531 52.097656 386.445313 57.820313 383.550781 C 63.339844 380.753906 68.628906 377.167969 73.542969 372.894531 C 73.859375 372.621094 74.183594 372.296875 74.511719 371.960938 C 74.5625 371.910156 74.617188 371.855469 74.671875 371.800781 C 74.675781 371.804688 74.683594 371.808594 74.6875 371.8125 C 74.980469 372.046875 75.257813 372.257813 75.507813 372.429688 C 77.453125 373.753906 79.5 374.785156 81.480469 375.777344 C 82.285156 376.183594 83.09375 376.589844 83.882813 377.011719 C 94.03125 382.441406 106.230469 388.488281 119.753906 392.15625 C 126.339844 393.945313 132.953125 395.28125 138.554688 396.351563 C 140.050781 396.636719 141.550781 396.921875 143.050781 397.199219 L 143.753906 397.328125 C 144.035156 397.375 144.316406 397.425781 144.601563 397.480469 C 144.605469 397.664063 144.609375 397.84375 144.613281 398.023438 C 144.644531 399.523438 144.667969 401.027344 144.691406 402.53125 L 144.695313 402.929688 C 144.746094 406.199219 144.53125 408.941406 144.015625 411.554688 C 143.472656 414.335938 142.746094 417.320313 141.796875 420.683594 C 140.007813 427.011719 138.097656 432.730469 135.953125 438.167969 C 131.734375 448.878906 126.273438 459.5625 119.253906 470.824219 C 116.335938 475.507813 112.941406 480.527344 108.574219 486.625 C 108.273438 487.039063 107.972656 487.453125 107.667969 487.863281 C 107.195313 488.503906 106.726563 489.144531 106.273438 489.796875 C 104.914063 491.75 104.902344 493.398438 105.132813 494.433594 C 105.421875 495.734375 106.246094 496.835938 107.453125 497.53125 C 108.304688 498.023438 109.246094 498.273438 110.25 498.269531 C 112.273438 498.265625 113.964844 497.242188 115.203125 496.492188 C 115.464844 496.332031 115.710938 496.179688 115.929688 496.066406 C 127.523438 490.195313 138.273438 483.011719 147.878906 474.71875 C 150.414063 472.527344 152.859375 470.308594 154.917969 468.425781 L 159.476563 464.246094 C 164.539063 466.34375 169.976563 468.476563 175.726563 470.257813 C 188.515625 474.21875 201.3125 477.492188 213.765625 479.988281 C 228.058594 482.847656 241 484.300781 253.332031 484.421875 C 260.238281 484.488281 267.007813 484.132813 273.269531 483.355469 C 279.261719 482.609375 285.667969 481.289063 292.851563 479.3125 C 319.449219 472 341.9375 460.65625 359.699219 445.601563 C 368.550781 438.101563 375.976563 429.394531 381.769531 419.71875 C 384.617188 414.960938 387.160156 409.882813 389.328125 404.625 C 390.390625 402.046875 391.378906 399.390625 392.261719 396.722656 C 392.644531 395.574219 392.984375 394.40625 393.324219 393.242188 C 393.773438 391.707031 394.195313 390.257813 394.710938 388.859375 C 396.308594 384.523438 398.617188 381.066406 401.574219 378.582031 C 402.285156 377.988281 403.074219 377.390625 403.929688 376.8125 L 404.28125 376.578125 C 405.460938 375.816406 407.429688 374.539063 408.019531 372.351563 C 408.808594 369.445313 406.375 367.464844 405.457031 366.71875 "/>
</g>
</g>
</svg>
